<?xml version="1.0" encoding="UTF-8" standalone="no"?>
<!-- Created with Inkscape (http://www.inkscape.org/) -->

<svg
   width="144"
   height="144"
   viewBox="0 0 38.1 38.100001"
   version="1.1"
   id="svg1"
   xml:space="preserve"
   inkscape:version="1.3.2 (091e20ef0f, 2023-11-25, custom)"
   sodipodi:docname="thumbnail.svg"
   inkscape:export-filename="thumbnail.png"
   inkscape:export-xdpi="96"
   inkscape:export-ydpi="96"
   xmlns:inkscape="http://www.inkscape.org/namespaces/inkscape"
   xmlns:sodipodi="http://sodipodi.sourceforge.net/DTD/sodipodi-0.dtd"
   xmlns:xlink="http://www.w3.org/1999/xlink"
   xmlns="http://www.w3.org/2000/svg"
   xmlns:svg="http://www.w3.org/2000/svg"><sodipodi:namedview
     id="namedview1"
     pagecolor="#505050"
     bordercolor="#eeeeee"
     borderopacity="1"
     inkscape:showpageshadow="0"
     inkscape:pageopacity="0"
     inkscape:pagecheckerboard="0"
     inkscape:deskcolor="#505050"
     inkscape:document-units="mm"
     inkscape:zoom="2.6079295"
     inkscape:cx="85.125"
     inkscape:cy="85.891892"
     inkscape:window-width="2560"
     inkscape:window-height="1368"
     inkscape:window-x="0"
     inkscape:window-y="0"
     inkscape:window-maximized="1"
     inkscape:current-layer="layer1" /><defs
     id="defs1"><linearGradient
       id="linearGradient1"
       inkscape:collect="always"><stop
         style="stop-color:#000000;stop-opacity:1;"
         offset="0.2781955"
         id="stop1" /><stop
         style="stop-color:#000000;stop-opacity:0;"
         offset="0.93984962"
         id="stop8" /></linearGradient><linearGradient
       id="linearGradient10"
       inkscape:collect="always"><stop
         style="stop-color:#1a2d28;stop-opacity:1;"
         offset="0"
         id="stop11" /><stop
         style="stop-color:#d57603;stop-opacity:1;"
         offset="1"
         id="stop10" /></linearGradient><linearGradient
       id="linearGradient6"
       inkscape:collect="always"><stop
         style="stop-color:#15394d;stop-opacity:1;"
         offset="0.1419753"
         id="stop7" /><stop
         style="stop-color:#8e4b01;stop-opacity:1;"
         offset="0.86574078"
         id="stop6" /></linearGradient><linearGradient
       id="linearGradient4"
       inkscape:collect="always"><stop
         style="stop-color:#b18d00;stop-opacity:1;"
         offset="0.14969136"
         id="stop4" /><stop
         style="stop-color:#ca5800;stop-opacity:1;"
         offset="1"
         id="stop5" /></linearGradient><linearGradient
       id="linearGradient2"
       inkscape:collect="always"><stop
         style="stop-color:#0c323d;stop-opacity:1;"
         offset="0"
         id="stop2" /><stop
         style="stop-color:#773f00;stop-opacity:1;"
         offset="1"
         id="stop3" /></linearGradient><linearGradient
       inkscape:collect="always"
       xlink:href="#linearGradient2"
       id="linearGradient3"
       x1="22.973068"
       y1="85.023331"
       x2="118.57784"
       y2="85.023331"
       gradientUnits="userSpaceOnUse" /><linearGradient
       inkscape:collect="always"
       xlink:href="#linearGradient4"
       id="linearGradient5"
       x1="37.426647"
       y1="51.035107"
       x2="121.02707"
       y2="51.035107"
       gradientUnits="userSpaceOnUse" /><linearGradient
       inkscape:collect="always"
       xlink:href="#linearGradient6"
       id="linearGradient7"
       x1="55.945423"
       y1="77.71386"
       x2="105.96201"
       y2="77.71386"
       gradientUnits="userSpaceOnUse" /><linearGradient
       inkscape:collect="always"
       xlink:href="#linearGradient10"
       id="linearGradient11"
       x1="50.248318"
       y1="75.975464"
       x2="105.36175"
       y2="75.975464"
       gradientUnits="userSpaceOnUse" /><radialGradient
       inkscape:collect="always"
       xlink:href="#linearGradient1"
       id="radialGradient8"
       cx="19.049999"
       cy="19.049999"
       fx="19.049999"
       fy="19.049999"
       r="17.145475"
       gradientUnits="userSpaceOnUse" /></defs><g
     inkscape:label="Layer 1"
     inkscape:groupmode="layer"
     id="layer1"><circle
       style="fill:url(#radialGradient8);fill-opacity:1;stroke-width:0.204;stroke-opacity:0"
       id="path1"
       cx="19.049999"
       cy="19.049999"
       r="17.145475" /><g
       id="g1"
       transform="matrix(0.2802683,0,0,0.2802683,-1.1293374,-1.1292843)"><path
         id="path8"
         style="display:inline;fill:#110800;fill-opacity:1;stroke:none;stroke-width:0.264583px;stroke-linecap:butt;stroke-linejoin:miter;stroke-opacity:1"
         d="m 78.332686,60.727043 c -1.084407,-0.06379 -8.165393,1.275374 -8.165393,1.275374 l -10.206095,4.656563 -1.02061,5.549532 6.641972,1.97404 -1.623157,0.331763 1.172539,15.877067 -2.615861,5.232239 0.631486,1.984375 c 0,0 17.410736,-1.804257 20.928955,-2.525944 3.518216,-0.721685 10.825179,-7.938534 10.825179,-7.938534 0,0 4.691122,-6.494857 5.503019,-7.396964 0.81189,-0.90211 1.17254,-6.405294 1.17254,-6.405294 0,0 -10.311629,1.33998 -13.377992,1.882055 L 96.76722,72.14495 c 0,0 3.7638,-5.613283 3.125907,-5.996016 C 99.255242,65.766204 91.53663,62.066432 91.217688,61.938855 90.898744,61.811278 79.41709,60.790832 78.332686,60.727043 Z"
         inkscape:label="shadow" /><path
         id="path11"
         style="display:inline;fill:#992007;fill-opacity:1;stroke:none;stroke-width:0.204;stroke-opacity:0"
         d="m 88.118652,66.416618 a 1.7773423,1.7773423 0 0 0 -1.777152,1.777152 1.7773423,1.7773423 0 0 0 1.777152,1.777153 1.7773423,1.7773423 0 0 0 1.77767,-1.777153 1.7773423,1.7773423 0 0 0 -1.77767,-1.777152 z m -21.702034,0.935343 a 1.7773423,1.7773423 0 0 0 -1.777669,1.777153 1.7773423,1.7773423 0 0 0 1.777669,1.777669 1.7773423,1.7773423 0 0 0 1.777152,-1.777669 1.7773423,1.7773423 0 0 0 -1.777152,-1.777153 z"
         inkscape:label="eyes" /><path
         id="path6"
         style="display:inline;fill:url(#linearGradient11);stroke:none;stroke-width:0.264583px;stroke-linecap:butt;stroke-linejoin:miter;stroke-opacity:1"
         inkscape:label="bar"
         d="m 100.13106,45.165719 -11.567768,12.22561 0.610299,3.049943 6.840926,0.608748 -0.07235,-0.07028 9.419583,-10.583333 z m -38.42711,46.713944 -3.143477,0.172083 -8.312155,9.375134 4.847767,5.35833 7.081738,-7.286891 0.02687,0.0031 z" /><path
         id="path9"
         style="display:inline;fill:url(#linearGradient7);stroke:none;stroke-width:0.264583px;stroke-linecap:butt;stroke-linejoin:miter;stroke-opacity:1"
         inkscape:label="ember"
         d="m 77.34515,54.526388 -9.783899,5.820833 -10.168889,2.04587 -1.44694,13.722676 2.249992,7.062618 0.577226,8.735901 -0.121956,0.13746 2.945039,1.878438 0.699183,5.571236 11.828735,1.39991 21.117574,-3.933605 4.086572,-11.360547 6.634223,-9.823173 -1.91358,-7.016626 -7.943702,-7.717359 -4.988843,-0.476456 -2.462382,-3.182235 -0.0021,0.0026 z m -3.256132,8.642366 -1.770435,3.166215 3.985287,0.426847 c -4.799844,7.841383 -6.158446,8.40088 -15.532386,2.730583 1.76339,-1.724905 6.858459,-5.292472 13.317534,-6.323645 z m 14.918469,0.488859 c 2.010277,-0.04869 4.599049,1.241623 8.789644,3.776514 -1.693545,1.656587 -6.460387,5.012523 -12.556856,6.189286 l 1.562695,-4.25297 -4.190442,0.236161 c 2.444345,-3.942871 4.022377,-5.891533 6.394959,-5.948991 z M 100.23574,75.505469 C 84.09142,99.083155 85.128057,83.573643 63.063334,96.012744 78.898188,80.519204 78.479161,96.531821 100.23574,75.505469 Z"
         sodipodi:nodetypes="ccccccccccccccccccccccccsccccsccc" /><path
         id="path1-7-6"
         style="display:inline;fill:url(#linearGradient3);stroke:#000000;stroke-width:0.204;stroke-opacity:0"
         inkscape:label="gear"
         d="m 43.087292,35.149792 c -4.128379,3.49089 -7.73582,7.554788 -10.712524,12.067998 l 11.23394,11.233939 c -1.472459,2.618752 -2.654755,5.390384 -3.525883,8.265646 H 24.407812 c -0.83831,3.789941 -1.284903,7.656027 -1.332735,11.53728 0.04787,3.881081 0.49446,7.746991 1.332735,11.536763 h 15.675013 c 0.871128,2.875263 2.053424,5.646894 3.525883,8.265646 L 32.374768,109.291 c 4.261825,6.50053 9.815804,12.0545 16.316317,16.31632 l 11.233939,-11.23394 c 2.618752,1.47246 5.390385,2.65476 8.265646,3.52588 v 15.67502 c 3.789941,0.8383 7.656027,1.2849 11.53728,1.33273 3.881081,-0.0479 7.746991,-0.49446 11.536764,-1.33273 v -15.67502 c 2.875261,-0.87112 5.646894,-2.05342 8.265645,-3.52588 l 11.233941,11.23394 c 2.73989,-1.80356 5.29897,-3.84975 7.6755,-6.08748 -1.9804,-2.50464 -5.34593,-6.54586 -5.34593,-6.54586 l -2.19986,-7.86773 c -1.31768,-0.61794 -5.9704,-3.36531 -9.155,-5.261698 -5.795417,5.919048 -13.727224,9.259628 -22.01106,9.270238 -17.043712,2e-4 -30.860562,-13.816423 -30.860649,-30.860135 0.04726,-8.788949 3.839821,-17.140821 10.426237,-22.960356 l -9.166882,-9.166882 -2.345593,-9.742558 z" /><path
         id="path7"
         style="display:inline;fill:url(#linearGradient5);stroke:#000000;stroke-width:0.204;stroke-opacity:0"
         inkscape:label="flame"
         d="M 53.290287,9.0888509 71.940828,26.314673 C 65.046261,21.851423 56.791205,15.631505 37.680904,11.977563 81.02575,65.642826 121.44668,44.797065 106.78005,92.793819 143.17195,63.698346 101.16276,24.001405 72.511853,10.205062 c 5.87507,6.066458 7.38419,9.906919 11.675773,16.176273 C 75.294623,16.042464 71.037318,14.139096 53.290287,9.0888509 Z"
         sodipodi:nodetypes="ccccccc" /></g></g></svg>
